PathFileType	4	(X/Y/Z)	Kaydara																																																																																																																																																																																																																												
DataRate	CameraRate	NumFrames	NumMarkers	Units	OrigDataRate	OrigDataStartFrame	OrigNumFrames																																																																																																																																																																																																																								
60	60	4	74	mm	60	2306	226																																																																																																																																																																																																																								
Frame#	Time	N_lasi			N_rasi			N_rpsi			N_lpsi			N_fneck			N_bneck			N_fhead			N_rhead			N_lhead			N_rshld			N_relbtop			N_relbext			N_relblow			N_rwrext			N_rwrtop			N_rwrlow			N_lshld			N_lelblow			N_lelbtop			N_lwrext			N_lwrtop			N_lwrlow			N_rtopleg			N_ltopleg			N_rkneefr			N_rkneebk			N_rkneeis			N_lkneefr			N_lknssbk			N_lkneeis			N_rankfr			N_rankis			N_rankbk			N_lankfr			N_lankbk			N_lankis			D_lasi			D_rasi			D_lpsi			D_fneck			D_bneck			D_fhead			D_rhead			D_lhead			D_rshld			D_relbtop			D_relbext			D_relblow			D_rwrext			D_rwrtop			D_rwrlow			D_lshld			D_lelbext			D_lelblow			D_lelbtop			D_lwrext			D_lwrtop			D_lwrlow			D_rtopleg			D_ltopleg			D_rkneefr			D_rkneebk			D_rkneeis			D_lkneefr			D_lknssbk			D_lkneeis			D_rankfr			D_rankis			D_rankbk			D_lankfr			D_lankbk			D_lankis			D_rpsi			N_lelbext		
		X1	Y1	Z1	X2	Y2	Z2	X3	Y3	Z3	X4	Y4	Z4	X5	Y5	Z5	X6	Y6	Z6	X7	Y7	Z7	X8	Y8	Z8	X9	Y9	Z9	X10	Y10	Z10	X11	Y11	Z11	X12	Y12	Z12	X13	Y13	Z13	X14	Y14	Z14	X15	Y15	Z15	X16	Y16	Z16	X17	Y17	Z17	X18	Y18	Z18	X19	Y19	Z19	X20	Y20	Z20	X21	Y21	Z21	X22	Y22	Z22	X23	Y23	Z23	X24	Y24	Z24	X25	Y25	Z25	X26	Y26	Z26	X27	Y27	Z27	X28	Y28	Z28	X29	Y29	Z29	X30	Y30	Z30	X31	Y31	Z31	X32	Y32	Z32	X33	Y33	Z33	X34	Y34	Z34	X35	Y35	Z35	X36	Y36	Z36	X37	Y37	Z37	X38	Y38	Z38	X39	Y39	Z39	X40	Y40	Z40	X41	Y41	Z41	X42	Y42	Z42	X43	Y43	Z43	X44	Y44	Z44	X45	Y45	Z45	X46	Y46	Z46	X47	Y47	Z47	X48	Y48	Z48	X49	Y49	Z49	X50	Y50	Z50	X51	Y51	Z51	X52	Y52	Z52	X53	Y53	Z53	X54	Y54	Z54	X55	Y55	Z55	X56	Y56	Z56	X57	Y57	Z57	X58	Y58	Z58	X59	Y59	Z59	X60	Y60	Z60	X61	Y61	Z61	X62	Y62	Z62	X63	Y63	Z63	X64	Y64	Z64	X65	Y65	Z65	X66	Y66	Z66	X67	Y67	Z67	X68	Y68	Z68	X69	Y69	Z69	X70	Y70	Z70	X71	Y71	Z71	X72	Y72	Z72	X73	Y73	Z73	X74	Y74	Z74
																																																																																																																																																																																																																															
85	38.417	-522.53986	1257.5946	-74.80704	-515.00008	1267.33078	-303.27539	-247.68536	1231.34682	-359.82506	-261.2792	1227.89474	-9.97902	-375.81509	1610.61966	-175.5759	-213.32188	1664.39697	-153.67325	-464.03507	1800.42572	-189.29598	-269.13843	1777.49039	-240.90342	-324.07635	1780.3299	-94.13263	-255.08562	1631.34857	-388.36994	-244.70886	1522.63596	-646.77971	-333.58246	1501.09283	-638.81092	-290.55817	1601.2323	-640.94948	-278.50582	1525.06348	-970.64171	-319.21658	1549.02634	-977.95052	-355.39936	1521.16821	-964.87076	-231.32538	1610.65399	22.03437	-226.99478	1572.52716	281.01788	-224.67398	1485.68512	282.21542	-202.46376	1502.00531	601.1552	-222.70878	1543.70865	611.4986	-271.26587	1521.47461	605.69244	-413.78063	1063.1472	-439.0134	-357.9076	1042.00478	49.17732	-423.04756	562.14569	-256.63387	-318.37524	579.31416	-326.79234	-360.09567	564.74537	-164.81327	-375.55077	540.19569	-100.7064	-249.42993	555.01076	-39.69257	-248.9558	547.07684	-189.36102	-295.36896	139.90862	-271.51724	-297.1348	154.53461	-191.65386	-215.82394	140.72576	-216.15295	-331.2151	193.18325	-119.07991	-258.60321	185.02136	-75.44332	-264.70898	193.56434	-163.16956	-467.08298	1040.71457	1743.6644	-432.80815	1057.75597	1457.12555	-270.09811	1134.1185	1745.40741	-406.55769	1569.2012	1583.16513	-265.89041	1593.47321	1590.13611	-448.01018	1774.77859	1573.6557	-287.31455	1726.93619	1495.31403	-292.15466	1736.37833	1651.27502	-300.84713	1588.23822	1493.31879	-426.34544	1708.50204	1270.90759	-463.22575	1717.052	1333.72284	-364.55391	1741.58707	1317.62238	-467.74834	1983.94516	1294.80804	-423.30029	1984.80682	1329.97971	-458.74683	1970.17746	1369.54865	-322.87937	1556.07544	1786.43585	-438.13046	1484.58481	1993.29239	-351.53782	1470.08377	2016.70929	-415.91667	1423.07129	2045.70465	-441.15662	1704.73999	2087.84882	-398.00198	1703.55789	2094.6785	-379.31538	1698.7381	2046.48895	-339.4677	1004.72626	1411.86249	-323.61183	1011.24969	1811.77734	-375.81242	455.12543	1451.79657	-276.31084	491.46393	1424.36569	-283.31684	458.58604	1544.75784	-357.42413	448.46218	1772.72858	-244.72692	486.23299	1788.4256	-316.57864	444.5866	1681.12534	-324.39735	130.6393	1418.10425	-295.26739	126.81668	1482.95242	-244.22922	128.59274	1418.44284	-323.04661	135.01386	1793.69141	-250.32583	125.01429	1807.19177	-293.98718	124.51497	1733.76846	-247.07619	1150.20119	1528.15231	-310.3651	1509.9646	282.70065
86	38.433	-522.20066	1257.56157	-74.63744	-514.81865	1267.28523	-303.07297	-247.5831	1231.33652	-359.72309	-260.60825	1227.80151	-9.59247	-376.12835	1610.89401	-175.6353	-213.63516	1664.67148	-153.73264	-463.96908	1800.34836	-189.47735	-268.98008	1777.58942	-241.22826	-324.24591	1780.18005	-93.97022	-254.96824	1631.43433	-388.43765	-244.60655	1522.88544	-646.88385	-333.66329	1501.50009	-638.89874	-290.37083	1601.61774	-640.97954	-278.57765	1525.79224	-970.72281	-319.24421	1549.79904	-978.00278	-355.43026	1521.87515	-964.98772	-231.08202	1611.01425	21.76766	-226.60759	1573.02414	280.7929	-224.16868	1486.2529	281.99034	-201.83298	1502.88605	600.88577	-221.91469	1544.51813	611.25465	-270.44388	1522.26578	605.51056	-413.6594	1063.06328	-438.76671	-357.59827	1041.98135	49.15576	-422.83577	562.14828	-256.52067	-318.17612	579.3314	-326.71551	-359.97765	564.78497	-164.65385	-375.39165	540.19295	-100.66128	-249.33994	555.00256	-39.6095	-248.79961	547.05669	-189.28392	-295.326	139.90179	-271.51609	-297.09503	154.53032	-191.6119	-215.64617	140.75111	-216.22643	-331.19583	193.15956	-119.09431	-258.58963	184.99039	-75.43711	-264.69257	193.53701	-163.17364	-467.30431	1040.59753	1743.42911	-432.63649	1057.58171	1456.95465	-270.47728	1134.08524	1745.6221	-406.91803	1569.16321	1582.95273	-266.14935	1593.44131	1589.96552	-448.15502	1774.85733	1573.35373	-287.56227	1727.00211	1495.66452	-292.372	1736.25824	1650.86487	-301.19581	1588.36685	1493.02505	-425.99808	1708.42453	1270.26405	-463.05183	1716.91269	1333.23624	-364.23252	1741.53839	1317.15759	-467.68208	1983.79974	1294.19266	-423.17638	1984.79202	1329.18579	-458.60023	1970.10681	1368.9502	-323.62442	1556.33972	1786.17996	-438.41892	1484.58969	1993.17886	-351.67393	1470.70496	2016.68976	-415.62668	1423.65753	2046.03195	-442.36847	1705.29449	2086.54068	-398.92502	1704.27246	2092.72919	-380.72926	1699.40384	2044.49844	-339.26247	1004.75433	1411.8869	-324.06418	1011.32668	1811.92123	-375.72556	455.12711	1451.84265	-276.17228	491.4291	1424.45297	-283.33372	458.50773	1544.72198	-357.50217	448.42358	1772.72873	-244.78603	486.36646	1788.58948	-316.58596	444.58435	1681.12686	-324.37477	130.63752	1418.11691	-295.26787	126.81644	1482.95197	-244.17799	128.57759	1418.50174	-323.05809	135.00147	1793.71216	-250.39518	125.02712	1807.19772	-293.96875	124.53595	1733.78494	-247.03123	1150.25291	1528.39371	-310.02359	1510.49423	282.58976
87	38.45	-521.89442	1257.53975	-74.45629	-514.61117	1267.21962	-302.87373	-247.48447	1231.3121	-359.59888	-260.67152	1228.05534	-10.002	-376.03119	1610.90195	-175.74263	-213.53798	1664.67926	-153.83995	-463.90682	1800.28107	-189.62439	-268.85214	1777.56989	-241.61686	-323.87981	1780.2243	-94.33327	-254.83469	1631.51901	-388.46745	-244.6006	1523.09647	-647.00111	-333.66467	1501.78589	-638.9753	-290.21721	1601.93085	-640.93353	-278.58795	1526.56448	-970.78506	-319.26832	1550.57983	-978.03436	-355.53535	1522.64572	-965.12924	-230.9911	1611.29471	21.54656	-226.26467	1573.53836	280.62355	-223.75853	1486.77017	281.90733	-201.15091	1503.73581	600.81841	-221.27707	1545.38376	611.08974	-269.8085	1523.14209	605.4414	-413.54382	1062.98012	-438.51734	-357.32719	1041.97853	49.16339	-422.69875	562.18117	-256.40999	-318.02532	579.32945	-326.609	-359.84604	564.78531	-164.53762	-375.29449	540.22335	-100.60031	-249.17145	554.89307	-39.53293	-248.60437	547.06703	-189.2384	-295.31704	139.90902	-271.51154	-297.05076	154.51581	-191.59149	-215.52509	140.74039	-216.24729	-331.22437	193.18285	-119.11088	-258.58379	184.98556	-75.44522	-264.7039	193.54622	-163.18598	-467.67162	1040.5954	1743.24753	-432.45556	1057.41005	1456.67282	-270.85978	1134.09393	1745.86533	-407.15641	1569.14459	1582.72446	-266.68039	1593.49731	1589.4928	-448.52112	1774.95865	1572.82074	-287.66235	1726.69449	1494.25659	-292.72234	1736.19049	1650.58945	-301.29574	1588.38226	1493.09189	-425.74936	1708.38623	1270.05272	-462.83714	1716.86569	1332.54761	-363.87627	1741.54831	1316.8924	-467.59933	1983.77686	1293.23151	-423.14167	1984.79553	1328.4462	-458.71811	1970.18417	1368.05298	-324.26998	1556.53015	1785.99045	-438.54595	1484.33456	1993.10074	-351.6766	1471.03699	2016.55884	-415.22881	1423.80615	2046.17966	-443.03238	1705.5896	2085.14267	-399.45858	1704.86206	2090.79117	-381.79585	1699.68185	2042.44156	-338.94535	1004.75716	1411.96457	-324.58237	1011.38535	1812.10129	-375.5476	455.14809	1451.76239	-276.05101	491.39683	1424.46152	-283.267	458.5133	1544.83063	-357.51553	448.41152	1772.69089	-244.85086	486.39038	1788.71964	-316.50171	444.61159	1681.14761	-324.34628	130.64696	1418.1311	-295.2692	126.81103	1482.95212	-244.17223	128.54373	1418.5141	-323.0772	135.00475	1793.71017	-250.44804	125.02778	1807.24472	-293.95864	124.5372	1733.797	-246.99871	1150.30563	1528.63205	-309.56846	1510.92575	282.56735
88	38.467	-521.54346	1257.54677	-74.31633	-514.40956	1267.11349	-302.67578	-247.37333	1231.25381	-359.46106	-260.43711	1228.13889	-10.05915	-375.4335	1610.77057	-175.84728	-212.94029	1664.54803	-153.94463	-463.82	1800.22064	-189.76116	-268.74517	1777.59979	-241.86428	-322.81879	1780.55176	-94.96505	-254.68103	1631.54541	-388.46081	-244.60079	1523.30414	-647.07764	-333.67958	1502.06604	-639.02489	-289.76547	1602.21878	-640.81863	-278.57325	1527.08862	-970.93887	-319.2345	1551.28326	-978.04794	-355.54668	1523.4259	-965.06378	-230.61596	1611.55472	21.40054	-225.83733	1574.06265	280.51722	-223.38148	1487.27402	281.82339	-200.5299	1504.55627	600.78777	-220.73223	1546.2085	610.92163	-269.18554	1523.80615	605.37506	-413.41522	1062.86911	-438.24547	-357.05799	1041.98532	49.19352	-422.61318	562.23335	-256.27447	-317.9295	579.32777	-326.53206	-359.69074	564.78382	-164.43645	-375.18112	540.2232	-100.54093	-249.12968	554.83326	-39.46084	-248.44746	547.04479	-189.17282	-295.28439	139.90381	-271.52294	-296.98481	154.5048	-191.57017	-215.50453	140.70979	-216.22448	-331.21407	193.1542	-119.10933	-258.57325	184.92977	-75.4069	-264.69349	193.50403	-163.16605	-467.99492	1040.54306	1743.0397	-432.26505	1057.28989	1456.40884	-271.27054	1134.20311	1746.05835	-407.38277	1569.0741	1582.38617	-266.7868	1593.42697	1589.43802	-448.62221	1774.88174	1572.42477	-287.88727	1726.81366	1494.34555	-293.17593	1736.21017	1650.40527	-301.72302	1588.52646	1492.66083	-425.0486	1708.44498	1269.57581	-462.56802	1716.91483	1332.07077	-363.60626	1741.58142	1316.67145	-467.57706	1983.79929	1292.52502	-423.27312	1984.84543	1327.78793	-458.82114	1970.21042	1367.39227	-324.63566	1556.63467	1785.89996	-438.82244	1484.0567	1993.0899	-351.44005	1471.16699	2016.13007	-414.87858	1423.7796	2046.18912	-443.59558	1705.66193	2083.71857	-399.95895	1705.25116	2088.9267	-382.58499	1699.82712	2040.61676	-338.58608	1004.78661	1412.04681	-325.05695	1011.46042	1812.2818	-375.40424	455.1392	1451.76773	-275.93664	491.39072	1424.51782	-283.15212	458.49499	1544.85245	-357.54524	448.39348	1772.6355	-244.86919	486.45027	1788.83392	-316.4537	444.63062	1681.14655	-324.324	130.6687	1418.08823	-295.26859	126.81526	1482.9509	-244.12962	128.5379	1418.53241	-323.08064	135.00738	1793.70697	-250.49694	125.04349	1807.31552	-293.95578	124.55772	1733.80127	-246.96409	1150.34256	1528.83163	-309.00461	1511.45126	282.52468
